{
    "asset" : {
        "generator" : "Khronos glTF Blender I/O v1.1.46",
        "version" : "2.0"
    },
    "scene" : 0,
    "scenes" : [
        {
            "name" : "Scene",
            "nodes" : [
                0,
                1,
                5
            ]
        }
    ],
    "nodes" : [
        {
            "name" : "Light",
            "rotation" : [
                0.16907575726509094,
                0.7558803558349609,
                -0.27217137813568115,
                0.570947527885437
            ],
            "translation" : [
                4.076245307922363,
                5.903861999511719,
                -1.0054539442062378
            ]
        },
        {
            "name" : "Camera",
            "rotation" : [
                0.483536034822464,
                0.33687159419059753,
                -0.20870360732078552,
                0.7804827094078064
            ],
            "translation" : [
                7.358891487121582,
                4.958309173583984,
                6.925790786743164
            ]
        },
        {
            "mesh" : 0,
            "name" : "Object_24",
            "rotation" : [
                0,
                0.999895453453064,
                0,
                0
            ],
            "translation" : [
                -0.2567253112792969,
                -0.09058760106563568,
                -0.03276348114013672
            ]
        },
        {
            "children" : [
                2
            ],
            "name" : "Low Poly Farm By Edwin3D.3ds"
        },
        {
            "children" : [
                3
            ],
            "name" : "RootNode (model correction matrix)"
        },
        {
            "children" : [
                4
            ],
            "name" : "RootNode (gltf orientation matrix)"
        }
    ],
    "materials" : [
        {
            "doubleSided" : true,
            "emissiveFactor" : [
                0,
                0,
                0
            ],
            "name" : "Silo5_COLOR_0",
            "pbrMetallicRoughness" : {
                "metallicFactor" : 0,
                "roughnessFactor" : 0.6000000238418579
            }
        }
    ],
    "meshes" : [
        {
            "name" : "Mesh_21",
            "primitives" : [
                {
                    "attributes" : {
                        "POSITION" : 0,
                        "NORMAL" : 1,
                        "COLOR_0" : 2
                    },
                    "indices" : 3,
                    "material" : 0
                }
            ]
        }
    ],
    "accessors" : [
        {
            "bufferView" : 0,
            "componentType" : 5126,
            "count" : 194,
            "max" : [
                0.8455507755279541,
                8.531190872192383,
                9.109827995300293
            ],
            "min" : [
                -0.1948544979095459,
                -8.357303619384766,
                -0.02045917510986328
            ],
            "type" : "VEC3"
        },
        {
            "bufferView" : 1,
            "componentType" : 5126,
            "count" : 194,
            "type" : "VEC3"
        },
        {
            "bufferView" : 2,
            "componentType" : 5126,
            "count" : 194,
            "type" : "VEC4"
        },
        {
            "bufferView" : 3,
            "componentType" : 5123,
            "count" : 198,
            "type" : "SCALAR"
        }
    ],
    "bufferViews" : [
        {
            "buffer" : 0,
            "byteLength" : 2328,
            "byteOffset" : 0
        },
        {
            "buffer" : 0,
            "byteLength" : 2328,
            "byteOffset" : 2328
        },
        {
            "buffer" : 0,
            "byteLength" : 3104,
            "byteOffset" : 4656
        },
        {
            "buffer" : 0,
            "byteLength" : 396,
            "byteOffset" : 7760
        }
    ],
    "buffers" : [
        {
            "byteLength" : 8156,
            "uri" : "farm_door.bin"
        }
    ]
}
