{
    "asset" : {
        "generator" : "Khronos glTF Blender I/O v1.1.46",
        "version" : "2.0"
    },
    "scene" : 0,
    "scenes" : [
        {
            "name" : "Scene",
            "nodes" : [
                0,
                1,
                8
            ]
        }
    ],
    "nodes" : [
        {
            "name" : "Light",
            "rotation" : [
                0.16907575726509094,
                0.7558803558349609,
                -0.27217137813568115,
                0.570947527885437
            ],
            "translation" : [
                4.076245307922363,
                5.903861999511719,
                -1.0054539442062378
            ]
        },
        {
            "name" : "Camera",
            "rotation" : [
                0.483536034822464,
                0.33687159419059753,
                -0.20870360732078552,
                0.7804827094078064
            ],
            "translation" : [
                7.358891487121582,
                4.958309173583984,
                6.925790786743164
            ]
        },
        {
            "mesh" : 0,
            "name" : "Object_11"
        },
        {
            "mesh" : 1,
            "name" : "Object_15"
        },
        {
            "mesh" : 2,
            "name" : "Object_29"
        },
        {
            "mesh" : 3,
            "name" : "Object_32"
        },
        {
            "children" : [
                2,
                3,
                4,
                5
            ],
            "name" : "Low Poly Farm By Edwin3D.3ds"
        },
        {
            "children" : [
                6
            ],
            "name" : "RootNode (model correction matrix)"
        },
        {
            "children" : [
                7
            ],
            "name" : "RootNode (gltf orientation matrix)"
        }
    ],
    "materials" : [
        {
            "doubleSided" : true,
            "emissiveFactor" : [
                0,
                0,
                0
            ],
            "name" : "Material.004",
            "pbrMetallicRoughness" : {
                "baseColorFactor" : [
                    0.7991031408309937,
                    0.7991029024124146,
                    0.7991030216217041,
                    1
                ],
                "metallicFactor" : 0,
                "roughnessFactor" : 0.5
            }
        },
        {
            "doubleSided" : true,
            "emissiveFactor" : [
                0,
                0,
                0
            ],
            "name" : "Material.003",
            "pbrMetallicRoughness" : {
                "baseColorFactor" : [
                    0.7991032600402832,
                    0.1499597430229187,
                    0.15592652559280396,
                    1
                ],
                "metallicFactor" : 0,
                "roughnessFactor" : 0.5
            }
        },
        {
            "doubleSided" : true,
            "emissiveFactor" : [
                0,
                0,
                0
            ],
            "name" : "Material.001",
            "pbrMetallicRoughness" : {
                "baseColorFactor" : [
                    1,
                    1,
                    1,
                    1
                ],
                "metallicFactor" : 0,
                "roughnessFactor" : 0.5
            }
        },
        {
            "doubleSided" : true,
            "emissiveFactor" : [
                0,
                0,
                0
            ],
            "name" : "Material.002",
            "pbrMetallicRoughness" : {
                "baseColorFactor" : [
                    1,
                    0.06300985813140869,
                    0.06662599742412567,
                    1
                ],
                "metallicFactor" : 0,
                "roughnessFactor" : 0.5
            }
        }
    ],
    "meshes" : [
        {
            "name" : "Mesh_8",
            "primitives" : [
                {
                    "attributes" : {
                        "POSITION" : 0,
                        "NORMAL" : 1,
                        "COLOR_0" : 2
                    },
                    "indices" : 3,
                    "material" : 0
                }
            ]
        },
        {
            "name" : "Mesh_12",
            "primitives" : [
                {
                    "attributes" : {
                        "POSITION" : 4,
                        "NORMAL" : 5,
                        "COLOR_0" : 6
                    },
                    "indices" : 7,
                    "material" : 1
                }
            ]
        },
        {
            "name" : "Mesh_26",
            "primitives" : [
                {
                    "attributes" : {
                        "POSITION" : 8,
                        "NORMAL" : 9,
                        "COLOR_0" : 10
                    },
                    "indices" : 11,
                    "material" : 2
                }
            ]
        },
        {
            "name" : "Mesh_29",
            "primitives" : [
                {
                    "attributes" : {
                        "POSITION" : 12,
                        "NORMAL" : 13,
                        "COLOR_0" : 14
                    },
                    "indices" : 15,
                    "material" : 3
                }
            ]
        }
    ],
    "accessors" : [
        {
            "bufferView" : 0,
            "componentType" : 5126,
            "count" : 1062,
            "max" : [
                -30.6281681060791,
                93.69013977050781,
                83.98831176757812
            ],
            "min" : [
                -61.14152526855469,
                -3.052530288696289,
                44.96116256713867
            ],
            "type" : "VEC3"
        },
        {
            "bufferView" : 1,
            "componentType" : 5126,
            "count" : 1062,
            "type" : "VEC3"
        },
        {
            "bufferView" : 2,
            "componentType" : 5126,
            "count" : 1062,
            "type" : "VEC4"
        },
        {
            "bufferView" : 3,
            "componentType" : 5123,
            "count" : 1095,
            "type" : "SCALAR"
        },
        {
            "bufferView" : 4,
            "componentType" : 5126,
            "count" : 84,
            "max" : [
                -29.31098175048828,
                59.98398208618164,
                19.198627471923828
            ],
            "min" : [
                -121.27147674560547,
                -3.5166702270507812,
                -56.281517028808594
            ],
            "type" : "VEC3"
        },
        {
            "bufferView" : 5,
            "componentType" : 5126,
            "count" : 84,
            "type" : "VEC3"
        },
        {
            "bufferView" : 6,
            "componentType" : 5126,
            "count" : 84,
            "type" : "VEC4"
        },
        {
            "bufferView" : 7,
            "componentType" : 5123,
            "count" : 84,
            "type" : "SCALAR"
        },
        {
            "bufferView" : 8,
            "componentType" : 5126,
            "count" : 1706,
            "max" : [
                -26.628997802734375,
                84.66888427734375,
                45.040077209472656
            ],
            "min" : [
                -124.23512268066406,
                -2.8914031982421875,
                -60.44154357910156
            ],
            "type" : "VEC3"
        },
        {
            "bufferView" : 9,
            "componentType" : 5126,
            "count" : 1706,
            "type" : "VEC3"
        },
        {
            "bufferView" : 10,
            "componentType" : 5126,
            "count" : 1706,
            "type" : "VEC4"
        },
        {
            "bufferView" : 11,
            "componentType" : 5123,
            "count" : 1932,
            "type" : "SCALAR"
        },
        {
            "bufferView" : 12,
            "componentType" : 5126,
            "count" : 1160,
            "max" : [
                -29.310989379882812,
                84.66885375976562,
                82.30770874023438
            ],
            "min" : [
                -121.27147674560547,
                -3.5166778564453125,
                -56.281517028808594
            ],
            "type" : "VEC3"
        },
        {
            "bufferView" : 13,
            "componentType" : 5126,
            "count" : 1160,
            "type" : "VEC3"
        },
        {
            "bufferView" : 14,
            "componentType" : 5126,
            "count" : 1160,
            "type" : "VEC4"
        },
        {
            "bufferView" : 15,
            "componentType" : 5123,
            "count" : 1191,
            "type" : "SCALAR"
        }
    ],
    "bufferViews" : [
        {
            "buffer" : 0,
            "byteLength" : 12744,
            "byteOffset" : 0
        },
        {
            "buffer" : 0,
            "byteLength" : 12744,
            "byteOffset" : 12744
        },
        {
            "buffer" : 0,
            "byteLength" : 16992,
            "byteOffset" : 25488
        },
        {
            "buffer" : 0,
            "byteLength" : 2190,
            "byteOffset" : 42480
        },
        {
            "buffer" : 0,
            "byteLength" : 1008,
            "byteOffset" : 44672
        },
        {
            "buffer" : 0,
            "byteLength" : 1008,
            "byteOffset" : 45680
        },
        {
            "buffer" : 0,
            "byteLength" : 1344,
            "byteOffset" : 46688
        },
        {
            "buffer" : 0,
            "byteLength" : 168,
            "byteOffset" : 48032
        },
        {
            "buffer" : 0,
            "byteLength" : 20472,
            "byteOffset" : 48200
        },
        {
            "buffer" : 0,
            "byteLength" : 20472,
            "byteOffset" : 68672
        },
        {
            "buffer" : 0,
            "byteLength" : 27296,
            "byteOffset" : 89144
        },
        {
            "buffer" : 0,
            "byteLength" : 3864,
            "byteOffset" : 116440
        },
        {
            "buffer" : 0,
            "byteLength" : 13920,
            "byteOffset" : 120304
        },
        {
            "buffer" : 0,
            "byteLength" : 13920,
            "byteOffset" : 134224
        },
        {
            "buffer" : 0,
            "byteLength" : 18560,
            "byteOffset" : 148144
        },
        {
            "buffer" : 0,
            "byteLength" : 2382,
            "byteOffset" : 166704
        }
    ],
    "buffers" : [
        {
            "byteLength" : 169088,
            "uri" : "farm.bin"
        }
    ]
}
