{
    "asset" : {
        "generator" : "Khronos glTF Blender I/O v1.1.46",
        "version" : "2.0"
    },
    "scene" : 0,
    "scenes" : [
        {
            "name" : "Scene",
            "nodes" : [
                0,
                1,
                7
            ]
        }
    ],
    "nodes" : [
        {
            "name" : "Light",
            "rotation" : [
                0.16907575726509094,
                0.7558803558349609,
                -0.27217137813568115,
                0.570947527885437
            ],
            "translation" : [
                4.076245307922363,
                5.903861999511719,
                -1.0054539442062378
            ]
        },
        {
            "name" : "Camera",
            "rotation" : [
                0.483536034822464,
                0.33687159419059753,
                -0.20870360732078552,
                0.7804827094078064
            ],
            "translation" : [
                7.358891487121582,
                4.958309173583984,
                6.925790786743164
            ]
        },
        {
            "mesh" : 0,
            "name" : "Object_18",
            "scale" : [
                1.2999999523162842,
                1,
                1.2999999523162842
            ]
        },
        {
            "mesh" : 1,
            "name" : "Object_21",
            "scale" : [
                1.2999999523162842,
                1,
                1.2999999523162842
            ]
        },
        {
            "mesh" : 2,
            "name" : "Object_22",
            "scale" : [
                1.2999999523162842,
                1,
                1.2999999523162842
            ]
        },
        {
            "children" : [
                2,
                3,
                4
            ],
            "name" : "Low Poly Farm By Edwin3D.3ds"
        },
        {
            "children" : [
                5
            ],
            "name" : "RootNode (model correction matrix)"
        },
        {
            "children" : [
                6
            ],
            "name" : "RootNode (gltf orientation matrix)"
        }
    ],
    "materials" : [
        {
            "doubleSided" : true,
            "emissiveFactor" : [
                0,
                0,
                0
            ],
            "name" : "Material.003",
            "pbrMetallicRoughness" : {
                "baseColorFactor" : [
                    0.7011022567749023,
                    0.630757212638855,
                    0.08650052547454834,
                    1
                ],
                "metallicFactor" : 0,
                "roughnessFactor" : 0.5
            }
        },
        {
            "doubleSided" : true,
            "emissiveFactor" : [
                0,
                0,
                0
            ],
            "name" : "Material.002",
            "pbrMetallicRoughness" : {
                "baseColorFactor" : [
                    0.7991031408309937,
                    0.68668532371521,
                    0.07421362400054932,
                    1
                ],
                "metallicFactor" : 0,
                "roughnessFactor" : 0.5
            }
        },
        {
            "doubleSided" : true,
            "emissiveFactor" : [
                0,
                0,
                0
            ],
            "name" : "Material.001",
            "pbrMetallicRoughness" : {
                "baseColorFactor" : [
                    0.7991032004356384,
                    0.5028863549232483,
                    0.2195262312889099,
                    1
                ],
                "metallicFactor" : 0,
                "roughnessFactor" : 0.5
            }
        }
    ],
    "meshes" : [
        {
            "name" : "Mesh_15",
            "primitives" : [
                {
                    "attributes" : {
                        "POSITION" : 0,
                        "NORMAL" : 1,
                        "COLOR_0" : 2
                    },
                    "indices" : 3,
                    "material" : 0
                }
            ]
        },
        {
            "name" : "Mesh_18",
            "primitives" : [
                {
                    "attributes" : {
                        "POSITION" : 4,
                        "NORMAL" : 5,
                        "COLOR_0" : 6
                    },
                    "indices" : 7,
                    "material" : 1
                }
            ]
        },
        {
            "name" : "Mesh_19",
            "primitives" : [
                {
                    "attributes" : {
                        "POSITION" : 8,
                        "NORMAL" : 9,
                        "COLOR_0" : 10
                    },
                    "indices" : 11,
                    "material" : 2
                }
            ]
        }
    ],
    "accessors" : [
        {
            "bufferView" : 0,
            "componentType" : 5126,
            "count" : 51,
            "max" : [
                69.82376098632812,
                0.9306182861328125,
                96.60835266113281
            ],
            "min" : [
                -128.9912109375,
                -5.89276123046875,
                -96.60731506347656
            ],
            "type" : "VEC3"
        },
        {
            "bufferView" : 1,
            "componentType" : 5126,
            "count" : 51,
            "type" : "VEC3"
        },
        {
            "bufferView" : 2,
            "componentType" : 5126,
            "count" : 51,
            "type" : "VEC4"
        },
        {
            "bufferView" : 3,
            "componentType" : 5123,
            "count" : 51,
            "type" : "SCALAR"
        },
        {
            "bufferView" : 4,
            "componentType" : 5126,
            "count" : 345,
            "max" : [
                72.93086242675781,
                0.9306182861328125,
                99.62796020507812
            ],
            "min" : [
                -132.0983123779297,
                -16.234771728515625,
                -99.62690734863281
            ],
            "type" : "VEC3"
        },
        {
            "bufferView" : 5,
            "componentType" : 5126,
            "count" : 345,
            "type" : "VEC3"
        },
        {
            "bufferView" : 6,
            "componentType" : 5126,
            "count" : 345,
            "type" : "VEC4"
        },
        {
            "bufferView" : 7,
            "componentType" : 5123,
            "count" : 345,
            "type" : "SCALAR"
        },
        {
            "bufferView" : 8,
            "componentType" : 5126,
            "count" : 600,
            "max" : [
                67.86399841308594,
                0.7073211669921875,
                94.70378875732422
            ],
            "min" : [
                -128.6143341064453,
                -85.52716064453125,
                -94.70274353027344
            ],
            "type" : "VEC3"
        },
        {
            "bufferView" : 9,
            "componentType" : 5126,
            "count" : 600,
            "type" : "VEC3"
        },
        {
            "bufferView" : 10,
            "componentType" : 5126,
            "count" : 600,
            "type" : "VEC4"
        },
        {
            "bufferView" : 11,
            "componentType" : 5123,
            "count" : 600,
            "type" : "SCALAR"
        }
    ],
    "bufferViews" : [
        {
            "buffer" : 0,
            "byteLength" : 612,
            "byteOffset" : 0
        },
        {
            "buffer" : 0,
            "byteLength" : 612,
            "byteOffset" : 612
        },
        {
            "buffer" : 0,
            "byteLength" : 816,
            "byteOffset" : 1224
        },
        {
            "buffer" : 0,
            "byteLength" : 102,
            "byteOffset" : 2040
        },
        {
            "buffer" : 0,
            "byteLength" : 4140,
            "byteOffset" : 2144
        },
        {
            "buffer" : 0,
            "byteLength" : 4140,
            "byteOffset" : 6284
        },
        {
            "buffer" : 0,
            "byteLength" : 5520,
            "byteOffset" : 10424
        },
        {
            "buffer" : 0,
            "byteLength" : 690,
            "byteOffset" : 15944
        },
        {
            "buffer" : 0,
            "byteLength" : 7200,
            "byteOffset" : 16636
        },
        {
            "buffer" : 0,
            "byteLength" : 7200,
            "byteOffset" : 23836
        },
        {
            "buffer" : 0,
            "byteLength" : 9600,
            "byteOffset" : 31036
        },
        {
            "buffer" : 0,
            "byteLength" : 1200,
            "byteOffset" : 40636
        }
    ],
    "buffers" : [
        {
            "byteLength" : 41836,
            "uri" : "floor.bin"
        }
    ]
}
