{
    "asset" : {
        "generator" : "Khronos glTF Blender I/O v1.1.46",
        "version" : "2.0"
    },
    "scene" : 0,
    "scenes" : [
        {
            "name" : "Scene",
            "nodes" : [
                0,
                1,
                6
            ]
        }
    ],
    "nodes" : [
        {
            "name" : "Light",
            "rotation" : [
                0.16907575726509094,
                0.7558803558349609,
                -0.27217137813568115,
                0.570947527885437
            ],
            "translation" : [
                4.076245307922363,
                5.903861999511719,
                -1.0054539442062378
            ]
        },
        {
            "name" : "Camera",
            "rotation" : [
                0.483536034822464,
                0.33687159419059753,
                -0.20870360732078552,
                0.7804827094078064
            ],
            "translation" : [
                7.358891487121582,
                4.958309173583984,
                6.925790786743164
            ]
        },
        {
            "mesh" : 0,
            "name" : "Object_33"
        },
        {
            "mesh" : 1,
            "name" : "Object_37"
        },
        {
            "children" : [
                2,
                3
            ],
            "name" : "Low Poly Farm By Edwin3D.3ds"
        },
        {
            "children" : [
                4
            ],
            "name" : "RootNode (model correction matrix)"
        },
        {
            "children" : [
                5
            ],
            "name" : "RootNode (gltf orientation matrix)"
        }
    ],
    "materials" : [
        {
            "doubleSided" : true,
            "emissiveFactor" : [
                0,
                0,
                0
            ],
            "name" : "Material.001",
            "pbrMetallicRoughness" : {
                "baseColorFactor" : [
                    0.6444797515869141,
                    0.7991031408309937,
                    0.20155635476112366,
                    1
                ],
                "metallicFactor" : 0,
                "roughnessFactor" : 0.5
            }
        },
        {
            "doubleSided" : true,
            "emissiveFactor" : [
                0,
                0,
                0
            ],
            "name" : "Material.002",
            "pbrMetallicRoughness" : {
                "baseColorFactor" : [
                    0.7991031408309937,
                    0.4178849756717682,
                    0.12213881313800812,
                    1
                ],
                "metallicFactor" : 0,
                "roughnessFactor" : 0.5
            }
        }
    ],
    "meshes" : [
        {
            "name" : "Mesh_30",
            "primitives" : [
                {
                    "attributes" : {
                        "POSITION" : 0,
                        "NORMAL" : 1,
                        "COLOR_0" : 2
                    },
                    "indices" : 3,
                    "material" : 0
                }
            ]
        },
        {
            "name" : "Mesh_34",
            "primitives" : [
                {
                    "attributes" : {
                        "POSITION" : 4,
                        "NORMAL" : 5,
                        "COLOR_0" : 6
                    },
                    "indices" : 7,
                    "material" : 1
                }
            ]
        }
    ],
    "accessors" : [
        {
            "bufferView" : 0,
            "componentType" : 5126,
            "count" : 11752,
            "max" : [
                26.669313430786133,
                42.3628044128418,
                89.20262908935547
            ],
            "min" : [
                -119.63449096679688,
                -1.41949462890625,
                -90.67133331298828
            ],
            "type" : "VEC3"
        },
        {
            "bufferView" : 1,
            "componentType" : 5126,
            "count" : 11752,
            "type" : "VEC3"
        },
        {
            "bufferView" : 2,
            "componentType" : 5126,
            "count" : 11752,
            "type" : "VEC4"
        },
        {
            "bufferView" : 3,
            "componentType" : 5123,
            "count" : 12420,
            "type" : "SCALAR"
        },
        {
            "bufferView" : 4,
            "componentType" : 5126,
            "count" : 1626,
            "max" : [
                24.318130493164062,
                5.406667709350586,
                86.08441925048828
            ],
            "min" : [
                -116.2054672241211,
                -5.988980770111084,
                -87.24547576904297
            ],
            "type" : "VEC3"
        },
        {
            "bufferView" : 5,
            "componentType" : 5126,
            "count" : 1626,
            "type" : "VEC3"
        },
        {
            "bufferView" : 6,
            "componentType" : 5126,
            "count" : 1626,
            "type" : "VEC4"
        },
        {
            "bufferView" : 7,
            "componentType" : 5123,
            "count" : 1932,
            "type" : "SCALAR"
        }
    ],
    "bufferViews" : [
        {
            "buffer" : 0,
            "byteLength" : 141024,
            "byteOffset" : 0
        },
        {
            "buffer" : 0,
            "byteLength" : 141024,
            "byteOffset" : 141024
        },
        {
            "buffer" : 0,
            "byteLength" : 188032,
            "byteOffset" : 282048
        },
        {
            "buffer" : 0,
            "byteLength" : 24840,
            "byteOffset" : 470080
        },
        {
            "buffer" : 0,
            "byteLength" : 19512,
            "byteOffset" : 494920
        },
        {
            "buffer" : 0,
            "byteLength" : 19512,
            "byteOffset" : 514432
        },
        {
            "buffer" : 0,
            "byteLength" : 26016,
            "byteOffset" : 533944
        },
        {
            "buffer" : 0,
            "byteLength" : 3864,
            "byteOffset" : 559960
        }
    ],
    "buffers" : [
        {
            "byteLength" : 563824,
            "uri" : "forest.bin"
        }
    ]
}
