{
    "asset" : {
        "generator" : "Khronos glTF Blender I/O v1.1.46",
        "version" : "2.0"
    },
    "scene" : 0,
    "scenes" : [
        {
            "name" : "Scene",
            "nodes" : [
                0,
                1,
                7
            ]
        }
    ],
    "nodes" : [
        {
            "name" : "Light",
            "rotation" : [
                0.16907575726509094,
                0.7558803558349609,
                -0.27217137813568115,
                0.570947527885437
            ],
            "translation" : [
                4.076245307922363,
                5.903861999511719,
                -1.0054539442062378
            ]
        },
        {
            "name" : "Camera",
            "rotation" : [
                0.483536034822464,
                0.33687159419059753,
                -0.20870360732078552,
                0.7804827094078064
            ],
            "translation" : [
                7.358891487121582,
                4.958309173583984,
                6.925790786743164
            ]
        },
        {
            "mesh" : 0,
            "name" : "Object_23",
            "translation" : [
                14.42531681060791,
                0,
                32.75168228149414
            ]
        },
        {
            "mesh" : 1,
            "name" : "Object_26",
            "translation" : [
                14.42531681060791,
                0,
                32.75168228149414
            ]
        },
        {
            "mesh" : 2,
            "name" : "Object_27",
            "translation" : [
                14.42531681060791,
                0,
                32.75168228149414
            ]
        },
        {
            "children" : [
                2,
                3,
                4
            ],
            "name" : "Low Poly Farm By Edwin3D.3ds"
        },
        {
            "children" : [
                5
            ],
            "name" : "RootNode (model correction matrix)"
        },
        {
            "children" : [
                6
            ],
            "name" : "RootNode (gltf orientation matrix)"
        }
    ],
    "materials" : [
        {
            "doubleSided" : true,
            "emissiveFactor" : [
                0,
                0,
                0
            ],
            "name" : "Material.001",
            "pbrMetallicRoughness" : {
                "baseColorFactor" : [
                    0.7991031408309937,
                    0.5332765579223633,
                    0.06301005184650421,
                    1
                ],
                "metallicFactor" : 0,
                "roughnessFactor" : 0.5
            }
        },
        {
            "doubleSided" : true,
            "emissiveFactor" : [
                0,
                0,
                0
            ],
            "name" : "Material.002",
            "pbrMetallicRoughness" : {
                "baseColorFactor" : [
                    0.10946173220872879,
                    0.10946173965930939,
                    0.10946173965930939,
                    1
                ],
                "metallicFactor" : 0,
                "roughnessFactor" : 0.5
            }
        },
        {
            "doubleSided" : true,
            "emissiveFactor" : [
                0,
                0,
                0
            ],
            "name" : "Material.003",
            "pbrMetallicRoughness" : {
                "baseColorFactor" : [
                    0.3662525713443756,
                    0.36625269055366516,
                    0.36625272035598755,
                    1
                ],
                "metallicFactor" : 0,
                "roughnessFactor" : 0.5
            }
        }
    ],
    "meshes" : [
        {
            "name" : "Mesh_20",
            "primitives" : [
                {
                    "attributes" : {
                        "POSITION" : 0,
                        "NORMAL" : 1,
                        "COLOR_0" : 2
                    },
                    "indices" : 3,
                    "material" : 0
                }
            ]
        },
        {
            "name" : "Mesh_23",
            "primitives" : [
                {
                    "attributes" : {
                        "POSITION" : 4,
                        "NORMAL" : 5,
                        "COLOR_0" : 6
                    },
                    "indices" : 7,
                    "material" : 1
                }
            ]
        },
        {
            "name" : "Mesh_24",
            "primitives" : [
                {
                    "attributes" : {
                        "POSITION" : 8,
                        "NORMAL" : 9,
                        "COLOR_0" : 10
                    },
                    "indices" : 11,
                    "material" : 2
                }
            ]
        }
    ],
    "accessors" : [
        {
            "bufferView" : 0,
            "componentType" : 5126,
            "count" : 542,
            "max" : [
                -17.686290740966797,
                8.956119537353516,
                -27.726139068603516
            ],
            "min" : [
                -29.22750473022461,
                -1.4492181539535522,
                -47.71916198730469
            ],
            "type" : "VEC3"
        },
        {
            "bufferView" : 1,
            "componentType" : 5126,
            "count" : 542,
            "type" : "VEC3"
        },
        {
            "bufferView" : 2,
            "componentType" : 5126,
            "count" : 542,
            "type" : "VEC4"
        },
        {
            "bufferView" : 3,
            "componentType" : 5123,
            "count" : 576,
            "type" : "SCALAR"
        },
        {
            "bufferView" : 4,
            "componentType" : 5126,
            "count" : 1514,
            "max" : [
                -17.929452896118164,
                8.602794647216797,
                -27.42069435119629
            ],
            "min" : [
                -28.809919357299805,
                -1.621167778968811,
                -47.981807708740234
            ],
            "type" : "VEC3"
        },
        {
            "bufferView" : 5,
            "componentType" : 5126,
            "count" : 1514,
            "type" : "VEC3"
        },
        {
            "bufferView" : 6,
            "componentType" : 5126,
            "count" : 1514,
            "type" : "VEC4"
        },
        {
            "bufferView" : 7,
            "componentType" : 5123,
            "count" : 1656,
            "type" : "SCALAR"
        },
        {
            "bufferView" : 8,
            "componentType" : 5126,
            "count" : 722,
            "max" : [
                -19.453882217407227,
                9.718990325927734,
                -43.29267501831055
            ],
            "min" : [
                -21.957895278930664,
                -0.49394798278808594,
                -47.585777282714844
            ],
            "type" : "VEC3"
        },
        {
            "bufferView" : 9,
            "componentType" : 5126,
            "count" : 722,
            "type" : "VEC3"
        },
        {
            "bufferView" : 10,
            "componentType" : 5126,
            "count" : 722,
            "type" : "VEC4"
        },
        {
            "bufferView" : 11,
            "componentType" : 5123,
            "count" : 744,
            "type" : "SCALAR"
        }
    ],
    "bufferViews" : [
        {
            "buffer" : 0,
            "byteLength" : 6504,
            "byteOffset" : 0
        },
        {
            "buffer" : 0,
            "byteLength" : 6504,
            "byteOffset" : 6504
        },
        {
            "buffer" : 0,
            "byteLength" : 8672,
            "byteOffset" : 13008
        },
        {
            "buffer" : 0,
            "byteLength" : 1152,
            "byteOffset" : 21680
        },
        {
            "buffer" : 0,
            "byteLength" : 18168,
            "byteOffset" : 22832
        },
        {
            "buffer" : 0,
            "byteLength" : 18168,
            "byteOffset" : 41000
        },
        {
            "buffer" : 0,
            "byteLength" : 24224,
            "byteOffset" : 59168
        },
        {
            "buffer" : 0,
            "byteLength" : 3312,
            "byteOffset" : 83392
        },
        {
            "buffer" : 0,
            "byteLength" : 8664,
            "byteOffset" : 86704
        },
        {
            "buffer" : 0,
            "byteLength" : 8664,
            "byteOffset" : 95368
        },
        {
            "buffer" : 0,
            "byteLength" : 11552,
            "byteOffset" : 104032
        },
        {
            "buffer" : 0,
            "byteLength" : 1488,
            "byteOffset" : 115584
        }
    ],
    "buffers" : [
        {
            "byteLength" : 117072,
            "uri" : "haybale.bin"
        }
    ]
}
