{
    "asset" : {
        "generator" : "Khronos glTF Blender I/O v1.1.46",
        "version" : "2.0"
    },
    "scene" : 0,
    "scenes" : [
        {
            "name" : "Scene",
            "nodes" : [
                0,
                1,
                13
            ]
        }
    ],
    "nodes" : [
        {
            "name" : "Light",
            "rotation" : [
                0.16907575726509094,
                0.7558803558349609,
                -0.27217137813568115,
                0.570947527885437
            ],
            "translation" : [
                4.076245307922363,
                5.903861999511719,
                -1.0054539442062378
            ]
        },
        {
            "name" : "Camera",
            "rotation" : [
                0.483536034822464,
                0.33687159419059753,
                -0.20870360732078552,
                0.7804827094078064
            ],
            "translation" : [
                7.358891487121582,
                4.958309173583984,
                6.925790786743164
            ]
        },
        {
            "mesh" : 0,
            "name" : "Object_10"
        },
        {
            "mesh" : 1,
            "name" : "Object_12"
        },
        {
            "mesh" : 2,
            "name" : "Object_14"
        },
        {
            "mesh" : 3,
            "name" : "Object_17"
        },
        {
            "mesh" : 4,
            "name" : "Object_20"
        },
        {
            "mesh" : 5,
            "name" : "Object_4"
        },
        {
            "mesh" : 6,
            "name" : "Object_5"
        },
        {
            "mesh" : 7,
            "name" : "Object_8"
        },
        {
            "mesh" : 8,
            "name" : "Object_9"
        },
        {
            "children" : [
                2,
                3,
                4,
                5,
                6,
                7,
                8,
                9,
                10
            ],
            "name" : "Low Poly Farm By Edwin3D.3ds"
        },
        {
            "children" : [
                11
            ],
            "name" : "RootNode (model correction matrix)"
        },
        {
            "children" : [
                12
            ],
            "name" : "RootNode (gltf orientation matrix)"
        }
    ],
    "materials" : [
        {
            "doubleSided" : true,
            "emissiveFactor" : [
                0,
                0,
                0
            ],
            "name" : "Material.008",
            "pbrMetallicRoughness" : {
                "baseColorFactor" : [
                    0.03954624384641647,
                    0.039546236395835876,
                    0.03954624384641647,
                    1
                ],
                "metallicFactor" : 0,
                "roughnessFactor" : 0.5
            }
        },
        {
            "doubleSided" : true,
            "emissiveFactor" : [
                0,
                0,
                0
            ],
            "name" : "Material.009",
            "pbrMetallicRoughness" : {
                "baseColorFactor" : [
                    0.799103319644928,
                    0.3662525415420532,
                    0.07036013901233673,
                    1
                ],
                "metallicFactor" : 0,
                "roughnessFactor" : 0.5
            }
        },
        {
            "doubleSided" : true,
            "emissiveFactor" : [
                0,
                0,
                0
            ],
            "name" : "Material.010",
            "pbrMetallicRoughness" : {
                "baseColorFactor" : [
                    0.7991032600402832,
                    0.32777804136276245,
                    0.06301005184650421,
                    1
                ],
                "metallicFactor" : 0,
                "roughnessFactor" : 0.5
            }
        },
        {
            "doubleSided" : true,
            "emissiveFactor" : [
                0,
                0,
                0
            ],
            "name" : "Material.011",
            "pbrMetallicRoughness" : {
                "baseColorFactor" : [
                    0.799103319644928,
                    0.13013634085655212,
                    0.13013654947280884,
                    1
                ],
                "metallicFactor" : 0,
                "roughnessFactor" : 0.5
            }
        },
        {
            "doubleSided" : true,
            "emissiveFactor" : [
                0,
                0,
                0
            ],
            "name" : "Material.012",
            "pbrMetallicRoughness" : {
                "baseColorFactor" : [
                    0.7991031408309937,
                    0.708375871181488,
                    0.15292620658874512,
                    1
                ],
                "metallicFactor" : 0,
                "roughnessFactor" : 0.5
            }
        },
        {
            "doubleSided" : true,
            "emissiveFactor" : [
                0,
                0,
                0
            ],
            "name" : "Material.004",
            "pbrMetallicRoughness" : {
                "baseColorFactor" : [
                    1,
                    0.6653873920440674,
                    0.07818746566772461,
                    1
                ],
                "metallicFactor" : 0,
                "roughnessFactor" : 0.5
            }
        },
        {
            "doubleSided" : true,
            "emissiveFactor" : [
                0,
                0,
                0
            ],
            "name" : "Material.005",
            "pbrMetallicRoughness" : {
                "baseColorFactor" : [
                    1,
                    0.8307697772979736,
                    0.02315342426300049,
                    1
                ],
                "metallicFactor" : 0,
                "roughnessFactor" : 0.5
            }
        },
        {
            "doubleSided" : true,
            "emissiveFactor" : [
                0,
                0,
                0
            ],
            "name" : "Material.006",
            "pbrMetallicRoughness" : {
                "baseColorFactor" : [
                    0.25015830993652344,
                    0.68668532371521,
                    0.7991031408309937,
                    1
                ],
                "metallicFactor" : 0,
                "roughnessFactor" : 0.5
            }
        },
        {
            "doubleSided" : true,
            "emissiveFactor" : [
                0,
                0,
                0
            ],
            "name" : "Material.007",
            "pbrMetallicRoughness" : {
                "baseColorFactor" : [
                    0.34670403599739075,
                    0.7991029620170593,
                    0.10702316462993622,
                    1
                ],
                "metallicFactor" : 0,
                "roughnessFactor" : 0.5
            }
        }
    ],
    "meshes" : [
        {
            "name" : "Mesh_7.002",
            "primitives" : [
                {
                    "attributes" : {
                        "POSITION" : 0,
                        "NORMAL" : 1,
                        "COLOR_0" : 2
                    },
                    "indices" : 3,
                    "material" : 0
                }
            ]
        },
        {
            "name" : "Mesh_9.002",
            "primitives" : [
                {
                    "attributes" : {
                        "POSITION" : 4,
                        "NORMAL" : 5,
                        "COLOR_0" : 6
                    },
                    "indices" : 7,
                    "material" : 1
                }
            ]
        },
        {
            "name" : "Mesh_11.002",
            "primitives" : [
                {
                    "attributes" : {
                        "POSITION" : 8,
                        "NORMAL" : 9,
                        "COLOR_0" : 10
                    },
                    "indices" : 11,
                    "material" : 2
                }
            ]
        },
        {
            "name" : "Mesh_14.002",
            "primitives" : [
                {
                    "attributes" : {
                        "POSITION" : 12,
                        "NORMAL" : 13,
                        "COLOR_0" : 14
                    },
                    "indices" : 15,
                    "material" : 3
                }
            ]
        },
        {
            "name" : "Mesh_17.002",
            "primitives" : [
                {
                    "attributes" : {
                        "POSITION" : 16,
                        "NORMAL" : 17,
                        "COLOR_0" : 18
                    },
                    "indices" : 19,
                    "material" : 4
                }
            ]
        },
        {
            "name" : "Mesh_1.002",
            "primitives" : [
                {
                    "attributes" : {
                        "POSITION" : 20,
                        "NORMAL" : 21,
                        "COLOR_0" : 22
                    },
                    "indices" : 23,
                    "material" : 5
                }
            ]
        },
        {
            "name" : "Mesh_2.002",
            "primitives" : [
                {
                    "attributes" : {
                        "POSITION" : 24,
                        "NORMAL" : 25,
                        "COLOR_0" : 26
                    },
                    "indices" : 27,
                    "material" : 6
                }
            ]
        },
        {
            "name" : "Mesh_5.002",
            "primitives" : [
                {
                    "attributes" : {
                        "POSITION" : 28,
                        "NORMAL" : 29,
                        "COLOR_0" : 30
                    },
                    "indices" : 31,
                    "material" : 7
                }
            ]
        },
        {
            "name" : "Mesh_6.002",
            "primitives" : [
                {
                    "attributes" : {
                        "POSITION" : 32,
                        "NORMAL" : 33,
                        "COLOR_0" : 34
                    },
                    "indices" : 35,
                    "material" : 8
                }
            ]
        }
    ],
    "accessors" : [
        {
            "bufferView" : 0,
            "componentType" : 5126,
            "count" : 18,
            "max" : [
                9.03377914428711,
                9.673907279968262,
                48.59695816040039
            ],
            "min" : [
                8.315173149108887,
                9.329832077026367,
                47.42586898803711
            ],
            "type" : "VEC3"
        },
        {
            "bufferView" : 1,
            "componentType" : 5126,
            "count" : 18,
            "type" : "VEC3"
        },
        {
            "bufferView" : 2,
            "componentType" : 5126,
            "count" : 18,
            "type" : "VEC4"
        },
        {
            "bufferView" : 3,
            "componentType" : 5123,
            "count" : 18,
            "type" : "SCALAR"
        },
        {
            "bufferView" : 4,
            "componentType" : 5126,
            "count" : 741,
            "max" : [
                11.183004379272461,
                10.128087043762207,
                53.13024139404297
            ],
            "min" : [
                4.602049827575684,
                -1.4421930313110352,
                42.71882629394531
            ],
            "type" : "VEC3"
        },
        {
            "bufferView" : 5,
            "componentType" : 5126,
            "count" : 741,
            "type" : "VEC3"
        },
        {
            "bufferView" : 6,
            "componentType" : 5126,
            "count" : 741,
            "type" : "VEC4"
        },
        {
            "bufferView" : 7,
            "componentType" : 5123,
            "count" : 768,
            "type" : "SCALAR"
        },
        {
            "bufferView" : 8,
            "componentType" : 5126,
            "count" : 4181,
            "max" : [
                44.493614196777344,
                6.168566703796387,
                69.587158203125
            ],
            "min" : [
                4.46000862121582,
                -3.723623514175415,
                43.12885665893555
            ],
            "type" : "VEC3"
        },
        {
            "bufferView" : 9,
            "componentType" : 5126,
            "count" : 4181,
            "type" : "VEC3"
        },
        {
            "bufferView" : 10,
            "componentType" : 5126,
            "count" : 4181,
            "type" : "VEC4"
        },
        {
            "bufferView" : 11,
            "componentType" : 5123,
            "count" : 4236,
            "type" : "SCALAR"
        },
        {
            "bufferView" : 12,
            "componentType" : 5126,
            "count" : 124,
            "max" : [
                9.378862380981445,
                8.76449966430664,
                48.98780059814453
            ],
            "min" : [
                6.764199733734131,
                2.7021875381469727,
                46.372459411621094
            ],
            "type" : "VEC3"
        },
        {
            "bufferView" : 13,
            "componentType" : 5126,
            "count" : 124,
            "type" : "VEC3"
        },
        {
            "bufferView" : 14,
            "componentType" : 5126,
            "count" : 124,
            "type" : "VEC4"
        },
        {
            "bufferView" : 15,
            "componentType" : 5123,
            "count" : 126,
            "type" : "SCALAR"
        },
        {
            "bufferView" : 16,
            "componentType" : 5126,
            "count" : 250,
            "max" : [
                10.570943832397461,
                10.928199768066406,
                50.13412094116211
            ],
            "min" : [
                5.60692024230957,
                9.639904022216797,
                45.17009735107422
            ],
            "type" : "VEC3"
        },
        {
            "bufferView" : 17,
            "componentType" : 5126,
            "count" : 250,
            "type" : "VEC3"
        },
        {
            "bufferView" : 18,
            "componentType" : 5126,
            "count" : 250,
            "type" : "VEC4"
        },
        {
            "bufferView" : 19,
            "componentType" : 5123,
            "count" : 258,
            "type" : "SCALAR"
        },
        {
            "bufferView" : 20,
            "componentType" : 5126,
            "count" : 7957,
            "max" : [
                40.59259796142578,
                11.660619735717773,
                63.408023834228516
            ],
            "min" : [
                8.712078094482422,
                0.7847172021865845,
                52.00223922729492
            ],
            "type" : "VEC3"
        },
        {
            "bufferView" : 21,
            "componentType" : 5126,
            "count" : 7957,
            "type" : "VEC3"
        },
        {
            "bufferView" : 22,
            "componentType" : 5126,
            "count" : 7957,
            "type" : "VEC4"
        },
        {
            "bufferView" : 23,
            "componentType" : 5123,
            "count" : 7968,
            "type" : "SCALAR"
        },
        {
            "bufferView" : 24,
            "componentType" : 5126,
            "count" : 7390,
            "max" : [
                40.59259796142578,
                11.660873413085938,
                63.38848114013672
            ],
            "min" : [
                8.712078094482422,
                0.8160651922225952,
                51.98295974731445
            ],
            "type" : "VEC3"
        },
        {
            "bufferView" : 25,
            "componentType" : 5126,
            "count" : 7390,
            "type" : "VEC3"
        },
        {
            "bufferView" : 26,
            "componentType" : 5126,
            "count" : 7390,
            "type" : "VEC4"
        },
        {
            "bufferView" : 27,
            "componentType" : 5123,
            "count" : 7392,
            "type" : "SCALAR"
        },
        {
            "bufferView" : 28,
            "componentType" : 5126,
            "count" : 207,
            "max" : [
                9.67097282409668,
                9.119613647460938,
                49.26382064819336
            ],
            "min" : [
                6.48432731628418,
                5.4351701736450195,
                46.07717514038086
            ],
            "type" : "VEC3"
        },
        {
            "bufferView" : 29,
            "componentType" : 5126,
            "count" : 207,
            "type" : "VEC3"
        },
        {
            "bufferView" : 30,
            "componentType" : 5126,
            "count" : 207,
            "type" : "VEC4"
        },
        {
            "bufferView" : 31,
            "componentType" : 5123,
            "count" : 210,
            "type" : "SCALAR"
        },
        {
            "bufferView" : 32,
            "componentType" : 5126,
            "count" : 11130,
            "max" : [
                40.37006378173828,
                9.857297897338867,
                64.66706085205078
            ],
            "min" : [
                8.785304069519043,
                -2.8091416358947754,
                50.75882339477539
            ],
            "type" : "VEC3"
        },
        {
            "bufferView" : 33,
            "componentType" : 5126,
            "count" : 11130,
            "type" : "VEC3"
        },
        {
            "bufferView" : 34,
            "componentType" : 5126,
            "count" : 11130,
            "type" : "VEC4"
        },
        {
            "bufferView" : 35,
            "componentType" : 5123,
            "count" : 11136,
            "type" : "SCALAR"
        }
    ],
    "bufferViews" : [
        {
            "buffer" : 0,
            "byteLength" : 216,
            "byteOffset" : 0
        },
        {
            "buffer" : 0,
            "byteLength" : 216,
            "byteOffset" : 216
        },
        {
            "buffer" : 0,
            "byteLength" : 288,
            "byteOffset" : 432
        },
        {
            "buffer" : 0,
            "byteLength" : 36,
            "byteOffset" : 720
        },
        {
            "buffer" : 0,
            "byteLength" : 8892,
            "byteOffset" : 756
        },
        {
            "buffer" : 0,
            "byteLength" : 8892,
            "byteOffset" : 9648
        },
        {
            "buffer" : 0,
            "byteLength" : 11856,
            "byteOffset" : 18540
        },
        {
            "buffer" : 0,
            "byteLength" : 1536,
            "byteOffset" : 30396
        },
        {
            "buffer" : 0,
            "byteLength" : 50172,
            "byteOffset" : 31932
        },
        {
            "buffer" : 0,
            "byteLength" : 50172,
            "byteOffset" : 82104
        },
        {
            "buffer" : 0,
            "byteLength" : 66896,
            "byteOffset" : 132276
        },
        {
            "buffer" : 0,
            "byteLength" : 8472,
            "byteOffset" : 199172
        },
        {
            "buffer" : 0,
            "byteLength" : 1488,
            "byteOffset" : 207644
        },
        {
            "buffer" : 0,
            "byteLength" : 1488,
            "byteOffset" : 209132
        },
        {
            "buffer" : 0,
            "byteLength" : 1984,
            "byteOffset" : 210620
        },
        {
            "buffer" : 0,
            "byteLength" : 252,
            "byteOffset" : 212604
        },
        {
            "buffer" : 0,
            "byteLength" : 3000,
            "byteOffset" : 212856
        },
        {
            "buffer" : 0,
            "byteLength" : 3000,
            "byteOffset" : 215856
        },
        {
            "buffer" : 0,
            "byteLength" : 4000,
            "byteOffset" : 218856
        },
        {
            "buffer" : 0,
            "byteLength" : 516,
            "byteOffset" : 222856
        },
        {
            "buffer" : 0,
            "byteLength" : 95484,
            "byteOffset" : 223372
        },
        {
            "buffer" : 0,
            "byteLength" : 95484,
            "byteOffset" : 318856
        },
        {
            "buffer" : 0,
            "byteLength" : 127312,
            "byteOffset" : 414340
        },
        {
            "buffer" : 0,
            "byteLength" : 15936,
            "byteOffset" : 541652
        },
        {
            "buffer" : 0,
            "byteLength" : 88680,
            "byteOffset" : 557588
        },
        {
            "buffer" : 0,
            "byteLength" : 88680,
            "byteOffset" : 646268
        },
        {
            "buffer" : 0,
            "byteLength" : 118240,
            "byteOffset" : 734948
        },
        {
            "buffer" : 0,
            "byteLength" : 14784,
            "byteOffset" : 853188
        },
        {
            "buffer" : 0,
            "byteLength" : 2484,
            "byteOffset" : 867972
        },
        {
            "buffer" : 0,
            "byteLength" : 2484,
            "byteOffset" : 870456
        },
        {
            "buffer" : 0,
            "byteLength" : 3312,
            "byteOffset" : 872940
        },
        {
            "buffer" : 0,
            "byteLength" : 420,
            "byteOffset" : 876252
        },
        {
            "buffer" : 0,
            "byteLength" : 133560,
            "byteOffset" : 876672
        },
        {
            "buffer" : 0,
            "byteLength" : 133560,
            "byteOffset" : 1010232
        },
        {
            "buffer" : 0,
            "byteLength" : 178080,
            "byteOffset" : 1143792
        },
        {
            "buffer" : 0,
            "byteLength" : 22272,
            "byteOffset" : 1321872
        }
    ],
    "buffers" : [
        {
            "byteLength" : 1344144,
            "uri" : "wheat_field.bin"
        }
    ]
}
