<?xml version="1.0" encoding="utf-8"?>
<!-- Generator: Adobe Illustrator 16.0.0, SVG Export Plug-In . SVG Version: 6.00 Build 0)  -->
<!DOCTYPE svg PUBLIC "-//W3C//DTD SVG 1.1//EN" "http://www.w3.org/Graphics/SVG/1.1/DTD/svg11.dtd">
<svg version="1.1" id="Layer_1" xmlns="http://www.w3.org/2000/svg" xmlns:xlink="http://www.w3.org/1999/xlink" x="0px" y="0px"
	 width="612px" height="792px" viewBox="0 0 612 792" enable-background="new 0 0 612 792" xml:space="preserve">
<g>
	<path fill="#FFFFFF" d="M144.908,212.061c-9.136,31.99-18.277,63.977-27.403,95.97c-3.39,11.879-7.006,23.707-9.92,35.702
		c-0.68,2.794,1.075,6.182,1.731,9.292c0.043,0.199,0.263,0.396,0.445,0.529c14.532,10.546,15.752,23.803,8.896,39.437
		c-3.063,6.979-4.775,14.648-6.297,22.169c-1.194,5.901-3.459,8.727-9.774,7.053c-2.193-0.582-4.584-0.414-7.401-0.629
		c-2.794-17.624-5.563-35.067-8.324-52.515c-0.946-5.984-1.192-12.178-2.92-17.927c-6.52-21.688,1.445-41.886,5.87-62.433
		c3.433-15.938,7.154-31.819,11.096-47.641c0.729-2.925,2.57-6.067,4.833-8.035c15.851-13.778,31.886-27.348,47.996-40.82
		c5.822-4.87,12.324-7.517,20.396-7.497c87.979,0.228,175.957,0.228,263.937-0.005c7.834-0.02,14.188,2.541,19.797,7.198
		c16.339,13.567,32.521,27.322,48.543,41.258c2.25,1.958,4.023,5.161,4.728,8.095c6.547,27.418,12.838,54.896,19.115,82.376
		c0.558,2.46,0.959,5.145,0.59,7.597c-4.525,29.958-9.205,59.891-13.837,89.771c-0.944,0.343-1.567,0.722-2.214,0.779
		c-12.839,1.145-12.834,1.136-16.368-11.563c-3.185-11.459-6.646-22.852-9.369-34.418c-0.66-2.802,0-7.58,1.907-9.057
		c14.605-11.297,14.573-24.192,9.137-40.9c-11.979-36.8-21.661-74.347-32.285-111.586c-0.223-0.788-0.496-1.563-0.748-2.343
		c-0.598,0.117-1.191,0.235-1.791,0.354c0.752,6.999,0.569,14.255,2.415,20.955c9.778,35.514,19.957,70.92,30.309,106.273
		c1.483,5.077,1.331,8.641-2.853,12.267c-4.016,3.482-7.371,7.728-11.766,12.442c-1.084-3.229-2.039-5.688-2.736-8.222
		c-6.186-22.478-12.571-44.906-18.312-67.498c-1.563-6.156-4.318-7.865-10.409-8.137c-46.141-2.052-92.267-4.493-139.025-6.846
		c0-13.546,0-28.102,0-44.385c49.311,2.346,98.742,4.696,148.688,7.072c0.179-2.689,0.324-4.889,0.478-7.187
		c-104.063-9.343-207.667-9.351-311.682-0.041c0,1.958,0,4.157,0,7.249c49.495-2.374,98.78-4.74,148.708-7.135
		c0,15.444,0,29.996,0,45.697c-2.386,0-5.068-0.101-7.742,0.015c-44.751,1.94-89.497,3.972-134.255,5.766
		c-4.52,0.182-5.825,2.347-6.843,6.116c-6.499,24.083-13.164,48.12-19.794,72.169c-0.417,1.512-1.015,2.976-1.846,5.385
		c-5.253-5.658-10.267-10.481-14.471-15.929c-1.281-1.66-0.977-5.224-0.306-7.608c9.8-34.782,19.964-69.463,29.587-104.293
		c2.13-7.707,2.502-15.897,3.684-23.866C146.37,212.378,145.64,212.22,144.908,212.061z"/>
	<path fill="#FFFFFF" d="M296.771,379.844c0,112.933,0,224.849,0,337.65c-12.268-1.609-24.171-3.106-36.056-4.742
		c-25.629-3.531-51.23-7.273-76.887-10.575c-4.604-0.594-6.294-1.799-6.287-6.689c0.139-88.415,0.133-176.833,0-265.249
		c-0.008-4.182,1.543-6.144,5.061-7.908c26.655-13.371,53.192-26.971,79.852-40.331c2.583-1.294,5.714-1.967,8.618-2.061
		C279.417,379.669,287.778,379.844,296.771,379.844z"/>
	<path fill="#FFFFFF" d="M315.22,717.322c0-112.668,0-224.584,0-337.369c14.053,0.836,27.771-2.41,41.421,5.199
		c23.586,13.149,48.011,24.803,72.198,36.852c4.052,2.021,5.656,4.255,5.646,8.984c-0.164,87.951-0.156,175.899-0.024,263.851
		c0.008,4.86-1.031,6.693-6.324,7.381c-35.825,4.648-71.59,9.771-107.375,14.721C319.156,717.159,317.521,717.169,315.22,717.322z"
		/>
	<path fill="#FFFFFF" d="M3.902,682.956c0-3.612,0-6.144,0-8.675c0-70.694-0.066-141.394,0.166-212.092
		c0.015-4.326,1.57-9.159,3.845-12.879c9.973-16.306,20.313-32.395,30.876-48.328c3.51-5.293,3.614-9.996,1.143-15.66
		c-11.639-26.688-23.092-53.458-34.391-80.29c-1.28-3.04-1.951-6.744-1.606-10c6.57-61.908,13.342-123.794,20.061-185.685
		c0.801-7.387,5.626-11,15.559-10.23c7.404,0.574,14.76,2.144,22.055,3.666c4.146,0.866,5.811,3.654,5.533,8.236
		c-2.21,36.556-4.206,73.127-6.255,109.692c-1.042,18.606-2.057,37.216-4.492,56.039c-4.913-18.579-9.826-37.156-14.736-55.734
		c-0.349,0.063-0.696,0.124-1.044,0.186c2.066,11.125,3.817,22.322,6.267,33.363c5.166,23.306,7.422,46.741,7.317,70.704
		c-0.468,108.729-0.287,217.458-0.026,326.19c0.019,7.8-1.634,12.113-9.57,14.765c-11.452,3.83-22.39,9.203-33.552,13.9
		C8.978,680.995,6.872,681.782,3.902,682.956z"/>
	<path fill="#FFFFFF" d="M570.334,221.013c-4.906,18.621-9.814,37.24-14.718,55.86c-0.434-0.015-0.862-0.032-1.295-0.047
		c-0.813-13.579-1.67-27.156-2.428-40.738c-2.248-40.059-4.41-80.122-6.704-120.181c-0.679-11.847-0.824-12.354,10.727-13.987
		c8.145-1.151,16.475-1.037,24.729-1.277c5.328-0.156,6.863,3.147,7.367,8.002c2.658,25.744,5.591,51.46,8.385,77.189
		c3.949,36.394,7.929,72.782,11.674,109.198c0.336,3.26-0.328,6.959-1.606,10c-11.299,26.832-22.752,53.602-34.391,80.29
		c-2.473,5.662-2.362,10.365,1.146,15.66c10.811,16.329,21.295,32.872,31.692,49.467c1.639,2.619,3.05,5.941,3.058,8.939
		c0.168,73.032,0.131,146.062,0.108,219.093c0,1.136-0.236,2.271-0.471,4.352c-9.797-4.077-19.205-7.916-28.55-11.912
		c-6.835-2.923-16.135-4.336-19.644-9.566c-3.506-5.227-1.367-14.367-1.371-21.793c-0.044-102.896,0.36-205.797-0.285-308.69
		c-0.175-28.206,2.572-55.771,8.662-83.175c1.959-8.809,3.389-17.737,5.059-26.611C571.096,221.06,570.713,221.037,570.334,221.013z
		"/>
	<path fill="#FFFFFF" d="M86.603,411.682c0.844,21.604,2.31,43.208,2.417,64.817c0.322,65.075,0.116,130.155,0.116,195.232
		c0,2.729,0,5.458,0,9.752c-10.485-6.758-19.9-12.553-28.928-18.897c-1.522-1.068-1.909-4.498-1.929-6.843
		c-0.154-17.727-0.086-35.455-0.086-53.183c0-98.897,0-197.799,0-296.7c0-2.713,0-5.425,0-8.139c0.53-0.049,1.062-0.099,1.591-0.148
		c3.853,16.669,7.72,33.335,11.558,50.01c4.699,20.425,9.364,40.855,14.089,61.273c0.246,1.063,0.906,2.03,1.373,3.042
		L86.603,411.682z"/>
	<path fill="#FFFFFF" d="M525.189,411.919c4.188-17.122,8.49-34.214,12.524-51.37c4.479-19.043,8.697-38.146,13.063-57.214
		c0.445-1.944,1.139-3.833,3.035-5.582c0,2.462,0,4.926,0,7.39c0,116.159-0.044,232.322,0.127,348.484
		c0.008,5.771-1.386,9.4-6.608,12.315c-7.91,4.415-15.324,9.71-24.113,15.386c-0.15-3.171-0.336-5.323-0.336-7.478
		c-0.016-81.173-0.066-162.349,0.095-243.521c0.015-6.213,1.575-12.423,2.414-18.634L525.189,411.919z"/>
	<path fill="#FFFFFF" d="M95.344,445.482c14.771,17.506,28.302,33.427,41.613,49.532c1.135,1.374,1.091,3.961,1.095,5.985
		c0.056,45.959,0.063,91.918-0.014,137.879c-0.002,2.224-0.076,5.224-1.416,6.547c-13.203,13.01-26.684,25.742-41.278,39.693
		C95.344,604.769,95.344,526.32,95.344,445.482z"/>
	<path fill="#FFFFFF" d="M516.581,684.823c-12.466-11.721-23.741-22.713-35.479-33.198c-5.492-4.907-7.429-10.218-7.37-17.622
		c0.36-43.623,0.072-87.25,0.354-130.873c0.024-4.021,1.53-8.818,4.025-11.899c12.13-14.967,24.829-29.473,38.47-45.485
		C516.581,526.128,516.581,604.668,516.581,684.823z"/>
	<path fill="#FFFFFF" d="M86.804,411.9c-3.385-17.781-6.646-35.585-10.181-53.337c-5.313-26.68-10.824-53.321-16.219-79.985
		c-0.227-1.12-0.133-2.304,0.747-4.25c0.42,0.936,0.841,1.869,1.26,2.805c0.444-0.072,0.89-0.145,1.334-0.216
		c3.083-55.757,6.165-111.515,9.248-167.271c0.626-0.502,1.252-1.006,1.879-1.508c0.651,1.383,1.128,2.888,1.982,4.131
		c10.828,15.752,21.816,31.395,32.467,47.265c1.667,2.484,2.713,6,2.58,8.973c-0.721,16.053-1.669,32.107-3.128,48.107
		c-0.273,3.016-2.604,6.529-5.042,8.514c-4.827,3.929-7.191,8.651-8.558,14.592c-5.567,24.216-11.015,48.479-17.503,72.456
		c-2.866,10.598-0.092,20.305,1.479,30.258c3.478,22.02,7.528,43.947,11.313,65.92c0.535,3.101,0.916,6.257-3.859,3.334
		C86.603,411.682,86.804,411.9,86.804,411.9z"/>
	<path fill="#FFFFFF" d="M525.39,411.696c-3.493,2.351-4.624,1.049-3.989-2.664c2.873-16.713,5.799-33.415,8.688-50.123
		c1.973-11.446,4.864-22.842,5.531-34.367c0.432-7.402-2.141-15.065-3.88-22.492c-4.924-21.032-10.301-41.959-15.069-63.023
		c-1.316-5.814-4.054-9.999-8.396-13.907c-2.502-2.254-4.792-5.961-5.109-9.216c-1.446-14.831-2.553-29.723-2.905-44.614
		c-0.113-4.691,1.47-10.125,4.048-14.056c10.689-16.306,22.058-32.165,34.681-47.878c3.086,55.827,6.175,111.653,9.33,168.708
		c1.403-1.684,2.042-2.449,3.385-4.058c0,1.854,0.172,2.913-0.024,3.899c-5.884,29.179-11.873,58.336-17.689,87.526
		c-3.082,15.471-5.879,30.997-8.801,46.491C525.189,411.919,525.39,411.696,525.39,411.696z"/>
	<path fill="#FFFFFF" d="M143.016,496.653c9.669,0,18.661,0,28.169,0c0,49.552,0,98.868,0,148.626c-9.448,0-18.617,0-28.169,0
		C143.016,595.8,143.016,546.655,143.016,496.653z"/>
	<path fill="#FFFFFF" d="M469.04,496.653c0,49.872,0,99.027,0,148.618c-9.481,0-18.657,0-28.269,0c0-49.611,0-98.932,0-148.618
		C450.215,496.653,459.198,496.653,469.04,496.653z"/>
	<path fill="#FFFFFF" d="M91.928,429.849c26.923,0,52.932,0,78.509,0c0,19.028,0,37.814,0,58.218
		c-9.507,0-18.018,0.104-26.521-0.104c-1.387-0.031-3.071-1.137-4.057-2.242c-15.644-17.581-31.199-35.241-46.748-52.907
		C92.703,432.352,92.613,431.608,91.928,429.849z"/>
	<path fill="#FFFFFF" d="M441.725,488.084c0-20.036,0-38.819,0-58.185c25.278,0,51.438,0,78.596,0
		c-1.302,2.124-1.922,3.556-2.898,4.668c-14.782,16.791-29.575,33.571-44.478,50.253c-1.288,1.439-3.314,3.046-5.056,3.113
		C459.57,488.261,451.226,488.084,441.725,488.084z"/>
	<path fill="#FFFFFF" d="M91.372,694.225c16.846-14.812,32.558-28.652,48.332-42.423c0.974-0.848,2.439-1.577,3.687-1.596
		c9.259-0.134,18.521-0.071,28.358-0.071c0.707,15.055,1.379,29.373,2.071,44.09C146.356,694.225,119.602,694.225,91.372,694.225z"
		/>
	<path fill="#FFFFFF" d="M519.448,694.367c-27.059,0-53.668,0-81.227,0c0.657-14.594,1.303-28.896,1.983-44.146
		c10.049,0,19.738-0.075,29.427,0.098c1.17,0.021,2.432,1.247,3.453,2.141c15.085,13.207,30.133,26.447,45.165,39.708
		C518.7,692.56,518.868,693.27,519.448,694.367z"/>
	<path fill="#FFFFFF" d="M116.661,421.519c3.749-15.118,7.354-29.653,11.229-45.283c15.046,15.987,29.31,31.141,42.62,45.283
		C154.571,421.519,136.157,421.519,116.661,421.519z"/>
	<path fill="#FFFFFF" d="M484.023,375.761c3.983,16.11,7.547,30.515,11.296,45.683c-19.366,0-37.767,0-54.536,0
		C454.344,407.117,468.621,392.031,484.023,375.761z"/>
	<path fill="#FFFFFF" d="M157.973,295.101c0,32.52,0,64.996,0,99.253c-8.156-7.894-15.444-14.811-22.503-21.954
		c-0.865-0.876-1.038-3.118-0.633-4.459c7.326-24.246,14.79-48.45,22.25-72.654C157.119,295.183,157.513,295.191,157.973,295.101z"
		/>
	<path fill="#FFFFFF" d="M455.079,295.087c7.36,24.186,14.785,48.352,21.932,72.598c0.507,1.718-0.503,4.497-1.747,6.011
		c-5.916,7.199-12.16,14.129-18.283,21.153c-0.85-0.638-1.699-1.273-2.549-1.909c0-32.575,0-65.151,0-97.728
		C454.646,295.17,454.865,295.13,455.079,295.087z"/>
	<path fill="#FFFFFF" d="M166.419,699.825c-4.998,8.643-9.703,16.775-14.825,25.634c-14.493-8.339-28.475-16.387-42.458-24.434
		c0.097-0.4,0.194-0.8,0.29-1.2C128.086,699.825,146.744,699.825,166.419,699.825z"/>
	<path fill="#FFFFFF" d="M445.32,699.397c20.012,0,38.543,0,57.078,0c0.236,0.471,0.475,0.941,0.711,1.412
		c-13.852,8.022-27.703,16.05-42.608,24.684C455.551,716.986,450.743,708.725,445.32,699.397z"/>
</g>
</svg>
